HIERARCHY
ROOT Hips
{
    OFFSET 0.000000 0.000000 0.000000
    CHANNELS 6 Xposition Yposition Zposition Zrotation Xrotation Yrotation
    JOINT Spine
    {
        OFFSET -0.000000 14.517291 0.000000
        CHANNELS 3 Zrotation Xrotation Yrotation
        JOINT Spine1
        {
            OFFSET -0.000000 37.558300 0.000000
            CHANNELS 3 Zrotation Xrotation Yrotation
            JOINT Neck
            {
                OFFSET -0.000000 37.404057 3.400369
                CHANNELS 3 Zrotation Xrotation Yrotation
                JOINT Head
                {
                    OFFSET -0.000000 24.785618 -3.540803
                    CHANNELS 3 Zrotation Xrotation Yrotation
                    End Site
                    {
                        OFFSET -0.000000 35.408028 0.000000
                    }
                }
            }
            JOINT LeftShoulder
            {
                OFFSET 6.992933 33.973492 -0.192664
                CHANNELS 3 Zrotation Xrotation Yrotation
                JOINT LeftArm
                {
                    OFFSET 21.527611 0.000000 0.000000
                    CHANNELS 3 Zrotation Xrotation Yrotation
                    JOINT LeftForeArm
                    {
                        OFFSET 56.353916 0.000000 0.000000
                        CHANNELS 3 Zrotation Xrotation Yrotation
                        JOINT LeftHand
                        {
                            OFFSET 47.774071 0.000000 0.000000
                            CHANNELS 3 Zrotation Xrotation Yrotation
                            End Site
                            {
                                OFFSET 26.556021 0.000000 0.000000
                            }
                        }
                    }
                }
            }
            JOINT RightShoulder
            {
                OFFSET -7.065357 33.973492 -0.192664
                CHANNELS 3 Zrotation Xrotation Yrotation
                JOINT RightArm
                {
                    OFFSET -21.527611 0.000000 0.000000
                    CHANNELS 3 Zrotation Xrotation Yrotation
                    JOINT RightForeArm
                    {
                        OFFSET -56.353916 0.000000 0.000000
                        CHANNELS 3 Zrotation Xrotation Yrotation
                        JOINT RightHand
                        {
                            OFFSET -47.774071 0.000000 0.000000
                            CHANNELS 3 Zrotation Xrotation Yrotation
                            End Site
                            {
                                OFFSET -26.556021 0.000000 0.000000
                            }
                        }
                    }
                }
            }
        }
    }
    JOINT LeftUpLeg
    {
        OFFSET 17.704014 0.000000 0.000000
        CHANNELS 3 Zrotation Xrotation Yrotation
        JOINT LeftLeg
        {
            OFFSET -0.000000 -81.181816 0.000000
            CHANNELS 3 Zrotation Xrotation Yrotation
            JOINT LeftFoot
            {
                OFFSET -0.000000 -62.821102 0.000000
                CHANNELS 3 Zrotation Xrotation Yrotation
                JOINT LeftToeBase
                {
                    OFFSET -0.000000 -11.507608 26.556021
                    CHANNELS 3 Zrotation Xrotation Yrotation
                    End Site
                    {
                        OFFSET -0.000000 0.000000 7.081605
                    }
                }
            }
        }
    }
    JOINT RightUpLeg
    {
        OFFSET -17.704014 0.000000 0.000000
        CHANNELS 3 Zrotation Xrotation Yrotation
        JOINT RightLeg
        {
            OFFSET -0.000000 -81.181816 0.000000
            CHANNELS 3 Zrotation Xrotation Yrotation
            JOINT RightFoot
            {
                OFFSET -0.000000 -62.821102 0.000000
                CHANNELS 3 Zrotation Xrotation Yrotation
                JOINT RightToeBase
                {
                    OFFSET -0.000000 -11.507608 26.556021
                    CHANNELS 3 Zrotation Xrotation Yrotation
                    End Site
                    {
                        OFFSET -0.000000 0.000000 7.081605
                    }
                }
            }
        }
    }
}
MOTION
Frames:    4
Frame Time:    0.008333
-16.766138    151.513657    -98.776543    1.579080    -5.676016    62.798553    -2.344706    1.401792    4.049737    -0.133839    1.499419    1.342364    -1.279530    6.338514    -19.362181    17.054216    -2.184999    -17.386381    4.534195    6.593767    -13.503304    -32.729603    23.170507    -56.539051    -1.443732    -28.402214    -120.074272    -8.868749    -29.691629    -13.208990    1.241579    11.246200    -6.061699    37.125877    18.266365    27.693411    -18.396826    -5.921697    29.832634    -23.209431    -6.439274    26.139854    16.590094    -13.385861    -18.712172    -17.400639    45.242638    -24.423809    6.485062    -30.812895    52.063076    0.000000    0.000000    0.000000    -28.068792    -10.908276    -34.892971    12.510051    34.408287    -21.369678    11.076424    6.162184    -10.854883    0.000000    0.000000    0.000000    
-16.684860    151.461792    -98.950500    1.532029    -5.687239    62.061348    -2.314825    1.413964    4.027215    -0.098324    1.532917    1.334513    -1.240910    6.247333    -19.243393    16.944435    -2.141428    -17.287416    4.482378    6.547186    -13.490855    -32.701099    23.194504    -56.550674    -1.297457    -28.671272    -119.873177    -8.847383    -29.728870    -13.246079    1.249245    11.313060    -6.008321    36.854919    18.087284    28.364832    -18.247105    -5.714421    30.104027    -23.436274    -6.282536    26.146049    16.627199    -13.162836    -18.536362    -17.751280    45.262787    -23.908421    6.695409    -30.945742    52.265621    0.000000    0.000000    0.000000    -28.073341    -11.164784    -34.780785    12.598472    34.233719    -21.194098    10.823459    6.329233    -10.592820    0.000000    0.000000    0.000000    
-16.587872    151.414139    -99.134895    1.489185    -5.685606    61.314529    -2.294939    1.415866    4.010884    -0.070156    1.566079    1.328844    -1.191714    6.172181    -19.124884    16.834995    -2.091537    -17.190783    4.460800    6.580730    -13.499655    -32.704735    23.163473    -56.564243    -1.135991    -28.942539    -119.658752    -9.479061    -29.652859    -13.668164    1.294433    11.348498    -5.947173    36.512062    17.979313    29.006962    -18.096495    -5.551262    30.336964    -23.657326    -6.175087    26.148180    16.650488    -12.941456    -18.109852    -17.901144    45.357449    -23.682165    6.916548    -31.047567    52.444324    0.000000    0.000000    0.000000    -28.114523    -11.482796    -34.743896    12.604175    34.178005    -20.979986    10.616345    6.564573    -10.296352    0.000000    0.000000    0.000000    
-16.500961    151.368073    -99.325241    1.453275    -5.661480    60.564976    -2.294296    1.440810    3.981809    -0.074830    1.562522    1.319050    -1.022734    5.988625    -18.977732    16.572729    -1.973350    -17.107912    4.483288    6.625850    -13.417373    -32.665775    23.173237    -56.694157    -0.930441    -29.282150    -119.380722    -9.620144    -29.651228    -13.796134    1.354604    11.431472    -5.853621    36.206017    17.656689    29.669323    -17.777580    -5.317810    30.627684    -24.128550    -6.099853    26.167795    16.652617    -12.724327    -17.708206    -18.089140    45.424637    -23.406443    7.131483    -31.135294    52.637386    0.000000    0.000000    0.000000    -28.135384    -11.778210    -34.630905    12.639090    34.026783    -20.812223    10.380623    6.724065    -10.032380    0.000000    0.000000    0.000000    
